<svg width="65" height="43" viewBox="0 0 65 43" fill="none" xmlns="http://www.w3.org/2000/svg">
<path d="M42.8109 5.79932C41.8129 5.79751 40.8195 5.9355 39.8598 6.20929L39.8598 6.20924L39.8519 6.21158C39.5484 6.30212 39.2299 6.33137 38.915 6.29763C38.6001 6.2639 38.295 6.16785 38.0175 6.01508C37.7401 5.86231 37.4958 5.65587 37.2989 5.40779C37.102 5.1597 36.9564 4.87492 36.8706 4.57003C36.7848 4.26514 36.7605 3.94622 36.7992 3.63186C36.8378 3.3175 36.9386 3.01396 37.0957 2.73891C37.2527 2.46387 37.463 2.22283 37.7141 2.02981C37.9652 1.8368 38.2522 1.69567 38.5584 1.61464L38.5585 1.61476L38.5707 1.61127C39.9492 1.21881 41.3758 1.0209 42.8091 1.02329L42.8122 1.02328C46.0329 1.01393 49.1783 1.99739 51.82 3.83977C54.4617 5.68215 56.4714 8.29391 57.5755 11.3195C58.6796 14.345 58.8244 17.6373 57.9902 20.7481C57.1561 23.8589 55.3834 26.6371 52.9137 28.7043L52.0809 29.4014L53.0704 29.8491C57.1277 31.6852 60.6191 34.5746 63.1815 38.217L63.1845 38.2212C63.3666 38.4759 63.4962 38.7643 63.5659 39.0695C63.6356 39.3748 63.6438 39.6908 63.5903 39.9993L64.2625 40.1161L63.5903 39.9993C63.5367 40.3078 63.4224 40.6026 63.2539 40.8665C63.0854 41.1304 62.8661 41.3581 62.6088 41.5365L62.6087 41.5365L62.6008 41.5422C62.2025 41.8269 61.7248 41.9793 61.2352 41.9778C60.8523 41.9755 60.4755 41.8821 60.1358 41.7053C59.7962 41.5286 59.5036 41.2737 59.282 40.9617C57.4214 38.3221 54.9545 36.1676 52.0884 34.6793C49.2222 33.1909 46.0406 32.4122 42.811 32.4087H42.8102C42.1769 32.4087 41.5695 32.1571 41.1217 31.7093C40.6738 31.2614 40.4222 30.654 40.4222 30.0207C40.4222 29.3873 40.6738 28.7799 41.1217 28.3321C41.5695 27.8843 42.1769 27.6327 42.8102 27.6327C45.7055 27.6327 48.4822 26.4825 50.5295 24.4352C52.5768 22.388 53.7269 19.6113 53.7269 16.716C53.7269 13.8207 52.5768 11.044 50.5295 8.99674C48.4824 6.94962 45.7059 5.7995 42.8109 5.79932ZM42.8109 5.79932C42.8111 5.79932 42.8113 5.79933 42.8115 5.79933L42.8102 6.48162V5.79932C42.8105 5.79932 42.8107 5.79932 42.8109 5.79932ZM32.0599 28.7054L31.2311 29.4026L32.2178 29.8491C36.2751 31.6852 39.7665 34.5746 42.329 38.217L42.3387 38.2308L42.3492 38.2442C42.5482 38.4992 42.6934 38.792 42.7759 39.1049C42.8583 39.4177 42.8764 39.744 42.8289 40.064C42.7814 40.384 42.6694 40.6911 42.4997 40.9665C42.33 41.2419 42.106 41.4799 41.8415 41.6662C41.577 41.8524 41.2774 41.983 40.9609 42.0499C40.6444 42.1169 40.3176 42.1188 40.0003 42.0556C39.683 41.9924 39.3818 41.8654 39.1151 41.6823C38.8484 41.4992 38.6217 41.2638 38.4487 40.9904L38.44 40.9766L38.4306 40.9632C36.5737 38.3185 34.1075 36.1598 31.2402 34.6696C28.373 33.1793 25.1891 32.4013 21.9577 32.4013C18.7263 32.4013 15.5424 33.1793 12.6752 34.6696C9.80795 36.1598 7.34167 38.3185 5.48485 40.9632L5.48333 40.9654C5.26505 41.2788 4.97402 41.5347 4.63517 41.7111C4.29632 41.8874 3.91977 41.9789 3.53779 41.9778L3.53361 41.9778C3.04372 41.9794 2.56571 41.827 2.16715 41.5421L2.16387 41.5398C1.64728 41.1752 1.29641 40.6205 1.18822 39.9975C1.08006 39.3747 1.22327 38.7344 1.58644 38.217C4.1489 34.5746 7.64029 31.6852 11.6976 29.8491L12.6843 29.4026L11.8555 28.7054C9.39241 26.6333 7.62604 23.8539 6.79589 20.7441C5.96574 17.6342 6.11197 14.3442 7.21476 11.3203C8.31754 8.29633 10.3235 5.68462 12.9608 3.83924C15.598 1.99385 18.7389 1.00407 21.9577 1.00407C25.1765 1.00407 28.3174 1.99385 30.9546 3.83924C33.5919 5.68462 35.5979 8.29633 36.7006 11.3203C37.8034 14.3442 37.9497 17.6342 37.1195 20.7441C36.2894 23.8539 34.523 26.6333 32.0599 28.7054ZM12.8808 10.651C11.6813 12.4463 11.041 14.5569 11.041 16.716C11.041 19.6113 12.1912 22.388 14.2385 24.4352C16.2857 26.4825 19.0624 27.6327 21.9577 27.6327C24.1168 27.6327 26.2274 26.9924 28.0227 25.7929C29.8179 24.5933 31.2171 22.8884 32.0434 20.8936C32.8696 18.8989 33.0858 16.7039 32.6646 14.5863C32.2434 12.4686 31.2037 10.5235 29.677 8.99674C28.1502 7.47002 26.2051 6.43031 24.0874 6.00908C21.9698 5.58786 19.7748 5.80405 17.7801 6.63031C15.7853 7.45656 14.0804 8.85578 12.8808 10.651Z" fill="#4CAF4F" stroke="#4CAF4F" stroke-width="1.36458"/>
</svg>
