<svg width="45" height="42" viewBox="0 0 45 42" fill="none" xmlns="http://www.w3.org/2000/svg">
<mask id="path-1-inside-1_156_116" fill="white">
<path d="M27.9798 20.3484C27.6513 20.3484 27.3462 20.2581 27.0752 20.1128V20.1167C27.0752 20.6336 26.8742 21.1191 26.5097 21.4827C26.1451 21.8473 25.66 22.0482 25.1436 22.0482C24.8102 22.0482 24.5013 21.9556 24.2273 21.8064C24.1997 22.2794 24.0106 22.7214 23.6734 23.059C23.3088 23.4236 22.8237 23.6245 22.307 23.6245C21.2805 23.6245 20.4468 22.8176 20.3867 21.8061C20.0691 21.9778 19.71 22.0678 19.3396 22.044C18.3298 21.9778 17.5389 21.1053 17.5389 20.0572V11.3694L16.5497 13.0832C16.1729 13.7387 15.4675 14.1457 14.7081 14.1457C14.3381 14.1457 13.9726 14.0486 13.6488 13.8631C13.2457 13.6294 12.9573 13.2542 12.8374 12.8054C12.7168 12.3563 12.7792 11.8866 13.0123 11.484C13.0126 11.484 16.249 5.87942 16.4465 5.53515C16.47 5.48339 16.5368 5.33325 16.5937 5.2053C16.6481 5.08313 16.6947 4.95775 16.7394 4.83172C17.7154 2.07624 20.1321 0.364603 23.0468 0.364603C26.8317 0.364603 29.9109 3.7036 29.9109 7.80785L29.9113 18.4166C29.9113 18.9329 29.7106 19.4181 29.3464 19.783C28.9818 20.1476 28.4967 20.3485 27.9798 20.3485L27.9798 20.3484ZM23.0468 1.39096C20.5423 1.39096 18.5462 2.80557 17.7068 5.17497C17.6531 5.32543 17.5972 5.47589 17.5319 5.62249C17.3425 6.04719 17.3425 6.04719 17.2892 6.10826L17.2821 6.10215C17.0178 6.60079 16.2327 7.96037 13.901 11.9977C13.8052 12.1633 13.7798 12.3555 13.8286 12.5394C13.8781 12.7233 13.9968 12.8783 14.161 12.9731C14.6709 13.266 15.3692 13.077 15.6599 12.5706L17.6078 9.19811C17.7242 8.99718 17.9595 8.89848 18.1852 8.95956C18.4096 9.01968 18.5655 9.22319 18.5655 9.4553V20.0575C18.5655 20.5577 18.9429 20.9895 19.4069 21.02C19.6744 21.0341 19.9238 20.9444 20.1113 20.7573C20.2817 20.5869 20.3755 20.36 20.3755 20.1172V13.1833C20.3755 12.8997 20.6054 12.6699 20.889 12.6699C21.1725 12.6699 21.4024 12.8994 21.4024 13.1833L21.4021 21.6933C21.4021 22.1923 21.8081 22.5983 22.3071 22.5983C22.5495 22.5983 22.7771 22.5045 22.9478 22.3341C23.1182 22.1634 23.2121 21.9357 23.2121 21.6933V13.1833C23.2121 12.8997 23.4416 12.6699 23.7255 12.6699C24.009 12.6699 24.2389 12.8994 24.2389 13.1833L24.2386 20.0375V20.1172C24.2386 20.6159 24.6446 21.0219 25.1439 21.0219C25.386 21.0219 25.613 20.9277 25.7847 20.7566C25.955 20.5866 26.0489 20.3596 26.0489 20.1169V13.1829C26.0489 12.8994 26.2785 12.6695 26.5624 12.6695C26.8459 12.6695 27.0758 12.899 27.0758 13.1829L27.0751 18.4168C27.0751 18.9161 27.4812 19.3222 27.9798 19.3222C28.2225 19.3222 28.4495 19.228 28.6199 19.0579C28.7909 18.8869 28.8845 18.6592 28.8845 18.4168L28.8848 7.80809C28.8848 4.27009 26.2659 1.39107 23.0468 1.39107L23.0468 1.39096Z"/>
</mask>
<path d="M27.9798 20.3484C27.6513 20.3484 27.3462 20.2581 27.0752 20.1128V20.1167C27.0752 20.6336 26.8742 21.1191 26.5097 21.4827C26.1451 21.8473 25.66 22.0482 25.1436 22.0482C24.8102 22.0482 24.5013 21.9556 24.2273 21.8064C24.1997 22.2794 24.0106 22.7214 23.6734 23.059C23.3088 23.4236 22.8237 23.6245 22.307 23.6245C21.2805 23.6245 20.4468 22.8176 20.3867 21.8061C20.0691 21.9778 19.71 22.0678 19.3396 22.044C18.3298 21.9778 17.5389 21.1053 17.5389 20.0572V11.3694L16.5497 13.0832C16.1729 13.7387 15.4675 14.1457 14.7081 14.1457C14.3381 14.1457 13.9726 14.0486 13.6488 13.8631C13.2457 13.6294 12.9573 13.2542 12.8374 12.8054C12.7168 12.3563 12.7792 11.8866 13.0123 11.484C13.0126 11.484 16.249 5.87942 16.4465 5.53515C16.47 5.48339 16.5368 5.33325 16.5937 5.2053C16.6481 5.08313 16.6947 4.95775 16.7394 4.83172C17.7154 2.07624 20.1321 0.364603 23.0468 0.364603C26.8317 0.364603 29.9109 3.7036 29.9109 7.80785L29.9113 18.4166C29.9113 18.9329 29.7106 19.4181 29.3464 19.783C28.9818 20.1476 28.4967 20.3485 27.9798 20.3485L27.9798 20.3484ZM23.0468 1.39096C20.5423 1.39096 18.5462 2.80557 17.7068 5.17497C17.6531 5.32543 17.5972 5.47589 17.5319 5.62249C17.3425 6.04719 17.3425 6.04719 17.2892 6.10826L17.2821 6.10215C17.0178 6.60079 16.2327 7.96037 13.901 11.9977C13.8052 12.1633 13.7798 12.3555 13.8286 12.5394C13.8781 12.7233 13.9968 12.8783 14.161 12.9731C14.6709 13.266 15.3692 13.077 15.6599 12.5706L17.6078 9.19811C17.7242 8.99718 17.9595 8.89848 18.1852 8.95956C18.4096 9.01968 18.5655 9.22319 18.5655 9.4553V20.0575C18.5655 20.5577 18.9429 20.9895 19.4069 21.02C19.6744 21.0341 19.9238 20.9444 20.1113 20.7573C20.2817 20.5869 20.3755 20.36 20.3755 20.1172V13.1833C20.3755 12.8997 20.6054 12.6699 20.889 12.6699C21.1725 12.6699 21.4024 12.8994 21.4024 13.1833L21.4021 21.6933C21.4021 22.1923 21.8081 22.5983 22.3071 22.5983C22.5495 22.5983 22.7771 22.5045 22.9478 22.3341C23.1182 22.1634 23.2121 21.9357 23.2121 21.6933V13.1833C23.2121 12.8997 23.4416 12.6699 23.7255 12.6699C24.009 12.6699 24.2389 12.8994 24.2389 13.1833L24.2386 20.0375V20.1172C24.2386 20.6159 24.6446 21.0219 25.1439 21.0219C25.386 21.0219 25.613 20.9277 25.7847 20.7566C25.955 20.5866 26.0489 20.3596 26.0489 20.1169V13.1829C26.0489 12.8994 26.2785 12.6695 26.5624 12.6695C26.8459 12.6695 27.0758 12.899 27.0758 13.1829L27.0751 18.4168C27.0751 18.9161 27.4812 19.3222 27.9798 19.3222C28.2225 19.3222 28.4495 19.228 28.6199 19.0579C28.7909 18.8869 28.8845 18.6592 28.8845 18.4168L28.8848 7.80809C28.8848 4.27009 26.2659 1.39107 23.0468 1.39107L23.0468 1.39096Z" fill="#4CAF4F"/>
<path d="M27.9798 20.3484V18.529H34.408L28.9334 21.898L27.9798 20.3484ZM27.0752 20.1128H25.2557V17.0727L27.9349 18.5093L27.0752 20.1128ZM26.5097 21.4827L25.2231 20.1962L25.2248 20.1945L26.5097 21.4827ZM24.2273 21.8064L22.411 21.7003L22.5784 18.8367L25.0975 20.2086L24.2273 21.8064ZM23.6734 23.059L24.9606 24.3449L24.9599 24.3455L23.6734 23.059ZM20.3867 21.8061L19.5217 20.2055L22.0337 18.8478L22.203 21.6982L20.3867 21.8061ZM19.3396 22.044L19.223 23.8597L19.2205 23.8596L19.3396 22.044ZM17.5389 11.3694L15.9631 10.4598L19.3584 4.57775V11.3694H17.5389ZM16.5497 13.0832L14.9722 12.1765L14.9739 12.1736L16.5497 13.0832ZM13.6488 13.8631L12.7442 15.4418L12.7363 15.4372L13.6488 13.8631ZM12.8374 12.8054L14.5946 12.3337L14.5952 12.3357L12.8374 12.8054ZM13.0123 11.484L11.4377 10.5723L11.9633 9.66459H13.0123V11.484ZM16.4465 5.53515L18.1036 6.28649L18.0678 6.36528L18.0248 6.44032L16.4465 5.53515ZM16.5937 5.2053L14.9313 4.46597L14.9313 4.46595L16.5937 5.2053ZM16.7394 4.83172L18.4544 5.43921L18.4542 5.4397L16.7394 4.83172ZM29.9109 7.80785L28.0915 7.8079V7.80785H29.9109ZM29.9113 18.4166L31.7307 18.4165V18.4166H29.9113ZM29.3464 19.783L30.6341 21.0683L30.6329 21.0695L29.3464 19.783ZM27.9798 20.3485V22.1679H21.5516L27.0262 18.7989L27.9798 20.3485ZM23.0468 1.39096V-0.42848H25.4589L24.7962 1.8908L23.0468 1.39096ZM17.7068 5.17497L19.4218 5.78255L19.4204 5.78646L17.7068 5.17497ZM17.5319 5.62249L19.1941 6.36246L19.1936 6.36342L17.5319 5.62249ZM17.2892 6.10826L18.6593 7.30539L17.469 8.66766L16.0999 7.48526L17.2892 6.10826ZM17.2821 6.10215L15.6745 5.25015L16.7435 3.23297L18.4713 4.72516L17.2821 6.10215ZM13.901 11.9977L15.4765 12.9077L15.4757 12.909L13.901 11.9977ZM13.8286 12.5394L12.0717 13.0124L12.0702 13.0067L13.8286 12.5394ZM14.161 12.9731L13.2548 14.5508L13.2514 14.5488L14.161 12.9731ZM15.6599 12.5706L14.0818 11.6649L14.0843 11.6606L15.6599 12.5706ZM17.6078 9.19811L16.0323 8.2881L16.0334 8.28618L17.6078 9.19811ZM18.1852 8.95956L17.7143 10.717L17.7098 10.7158L18.1852 8.95956ZM19.4069 21.02L19.3108 22.8369L19.2991 22.8363L19.2874 22.8355L19.4069 21.02ZM20.1113 20.7573L21.3978 22.0439L21.3967 22.045L20.1113 20.7573ZM21.4024 13.1833H23.2218V13.1834L21.4024 13.1833ZM21.4021 21.6933H19.5826V21.6933L21.4021 21.6933ZM22.9478 22.3341L24.2356 23.6194L24.2331 23.6218L22.9478 22.3341ZM24.2389 13.1833H26.0584V13.1834L24.2389 13.1833ZM24.2386 20.0375H22.4192V20.0374L24.2386 20.0375ZM25.7847 20.7566L27.07 22.0444L27.0688 22.0456L25.7847 20.7566ZM27.0758 13.1829H28.8952V13.1831L27.0758 13.1829ZM27.0751 18.4168H25.2557V18.4166L27.0751 18.4168ZM28.6199 19.0579L29.9064 20.3444L29.9052 20.3457L28.6199 19.0579ZM28.8845 18.4168H27.065V18.4168L28.8845 18.4168ZM28.8848 7.80809H30.7042V7.80815L28.8848 7.80809ZM23.0468 1.39107V3.21051H20.6347L21.2973 0.89123L23.0468 1.39107ZM27.9798 22.1679C27.3099 22.1679 26.7117 21.9824 26.2154 21.7163L27.9349 18.5093C27.9585 18.5219 27.9734 18.5267 27.9793 18.5283C27.9844 18.5297 27.9837 18.529 27.9798 18.529V22.1679ZM28.8946 20.1128V20.1167H25.2557V20.1128H28.8946ZM28.8946 20.1167C28.8946 21.1147 28.503 22.0643 27.7945 22.7709L25.2248 20.1945C25.2378 20.1815 25.2443 20.1704 25.248 20.1613C25.2518 20.1522 25.2557 20.1382 25.2557 20.1167H28.8946ZM27.7962 22.7692C27.0901 23.4753 26.1421 23.8677 25.1436 23.8677V20.2288C25.1645 20.2288 25.1782 20.225 25.1875 20.2211C25.1969 20.2173 25.2089 20.2104 25.2231 20.1962L27.7962 22.7692ZM25.1436 23.8677C24.4649 23.8677 23.8593 23.6778 23.3572 23.4043L25.0975 20.2086C25.1212 20.2215 25.1362 20.2264 25.1422 20.228C25.1473 20.2294 25.1468 20.2288 25.1436 20.2288V23.8677ZM26.0437 21.9126C25.9913 22.8082 25.628 23.6768 24.9606 24.3449L22.3862 21.7731C22.3929 21.7664 22.3968 21.7604 22.4001 21.7529C22.4037 21.7447 22.4094 21.728 22.411 21.7003L26.0437 21.9126ZM24.9599 24.3455C24.2537 25.0517 23.3057 25.444 22.307 25.444V21.8051C22.3282 21.8051 22.3421 21.8012 22.3514 21.7974C22.3606 21.7935 22.3727 21.7867 22.3869 21.7725L24.9599 24.3455ZM22.307 25.444C20.2984 25.444 18.6865 23.8675 18.5705 21.914L22.203 21.6982C22.2048 21.7292 22.2175 21.7563 22.2399 21.7777C22.2508 21.7881 22.2619 21.7948 22.2715 21.7988C22.28 21.8022 22.2908 21.8051 22.307 21.8051V25.444ZM21.2518 23.4068C20.6641 23.7244 19.9673 23.9076 19.223 23.8597L19.4563 20.2283C19.4563 20.2283 19.4602 20.2287 19.4698 20.2265C19.48 20.2241 19.4978 20.2184 19.5217 20.2055L21.2518 23.4068ZM19.2205 23.8596C17.2004 23.7271 15.7195 22.0091 15.7195 20.0572H19.3584C19.3584 20.1187 19.3807 20.1661 19.4087 20.197C19.436 20.2271 19.4545 20.2282 19.4587 20.2285L19.2205 23.8596ZM15.7195 20.0572V11.3694H19.3584V20.0572H15.7195ZM19.1147 12.2789L18.1254 13.9928L14.9739 12.1736L15.9631 10.4598L19.1147 12.2789ZM18.1271 13.9899C17.424 15.213 16.1154 15.9652 14.7081 15.9652V12.3263C14.8197 12.3263 14.9217 12.2644 14.9722 12.1765L18.1271 13.9899ZM14.7081 15.9652C14.0201 15.9652 13.3428 15.7848 12.7443 15.4418L14.5534 12.2845C14.6023 12.3125 14.6561 12.3263 14.7081 12.3263V15.9652ZM12.7363 15.4372C11.9194 14.9636 11.3248 14.1929 11.0796 13.275L14.5952 12.3357C14.5935 12.3295 14.589 12.3186 14.5802 12.3071C14.5715 12.2958 14.5635 12.2903 14.5614 12.2891L12.7363 15.4372ZM11.0801 13.2771C10.8339 12.3599 10.9628 11.3925 11.4377 10.5723L14.5868 12.3957C14.5894 12.3913 14.5939 12.3809 14.5959 12.3662C14.5979 12.3514 14.5962 12.3397 14.5946 12.3337L11.0801 13.2771ZM13.0123 9.66459C12.1198 9.89853 11.4517 10.5486 11.4467 10.557C11.4451 10.5598 11.4426 10.564 11.4418 10.5653C11.4414 10.5661 11.4406 10.5674 11.4403 10.5679C11.4402 10.5682 11.4398 10.5687 11.4397 10.5689C11.4395 10.5693 11.4396 10.5692 11.4403 10.568C11.4415 10.5659 11.4436 10.5623 11.4466 10.557C11.4526 10.5467 11.4615 10.5312 11.4734 10.5107C11.4971 10.4697 11.5319 10.4094 11.5763 10.3325C11.6652 10.1786 11.7924 9.95841 11.9457 9.69302C12.2522 9.16227 12.6629 8.45099 13.0798 7.72894C13.915 6.28242 14.7712 4.79908 14.8682 4.62997L18.0248 6.44032C17.9243 6.61549 17.0636 8.10658 16.2311 9.54844C15.8142 10.2706 15.4034 10.982 15.0968 11.5128C14.9435 11.7783 14.8163 11.9986 14.7273 12.1526C14.6828 12.2296 14.6479 12.2901 14.624 12.3314C14.6121 12.352 14.6029 12.3679 14.5966 12.3788C14.5935 12.3842 14.5909 12.3887 14.589 12.392C14.5881 12.3935 14.587 12.3954 14.586 12.3972C14.5856 12.3978 14.5844 12.3998 14.583 12.4022C14.5821 12.4037 14.5796 12.4081 14.5779 12.411C14.5728 12.4194 13.9048 13.0695 13.0123 13.3035V9.66459ZM14.7894 4.7838C14.8095 4.73963 14.8729 4.59722 14.9313 4.46597L18.2562 5.94462C18.2008 6.06929 18.1305 6.22714 18.1036 6.28649L14.7894 4.7838ZM14.9313 4.46595C14.9566 4.40909 14.9846 4.33644 15.0245 4.22374L18.4542 5.4397C18.4048 5.57906 18.3396 5.75717 18.2562 5.94464L14.9313 4.46595ZM15.0243 4.22424C16.2566 0.745258 19.3584 -1.45484 23.0468 -1.45484V2.18405C20.9059 2.18405 19.1742 3.40723 18.4544 5.43921L15.0243 4.22424ZM23.0468 -1.45484C27.9725 -1.45484 31.7304 2.8403 31.7304 7.80785H28.0915C28.0915 4.56691 25.6909 2.18405 23.0468 2.18405V-1.45484ZM31.7304 7.80779L31.7307 18.4165L28.0918 18.4167L28.0915 7.8079L31.7304 7.80779ZM31.7307 18.4166C31.7307 19.4143 31.3392 20.3619 30.6341 21.0683L28.0587 18.4976C28.073 18.4832 28.0801 18.471 28.084 18.4614C28.088 18.4519 28.0918 18.4378 28.0918 18.4166H31.7307ZM30.6329 21.0695C29.9267 21.7758 28.9785 22.1679 27.9798 22.1679V18.529C28.0012 18.529 28.0151 18.5252 28.0244 18.5213C28.0337 18.5175 28.0457 18.5106 28.0598 18.4964L30.6329 21.0695ZM27.0262 18.7989L27.0263 18.7989L28.9334 21.898L28.9333 21.898L27.0262 18.7989ZM23.0468 3.21041C21.3169 3.21041 20.0052 4.13581 19.4218 5.78254L15.9918 4.5674C17.0872 1.47535 19.7678 -0.42848 23.0468 -0.42848V3.21041ZM19.4204 5.78646C19.363 5.94741 19.2884 6.15067 19.1941 6.36246L15.8697 4.88252C15.906 4.8011 15.9432 4.70345 15.9932 4.56349L19.4204 5.78646ZM19.1936 6.36342C19.1103 6.55029 19.0405 6.7081 18.9871 6.815C18.9539 6.88135 18.9003 6.98359 18.8224 7.09684C18.7436 7.2116 18.6656 7.29814 18.6593 7.30539L15.919 4.91113C15.9233 4.90624 15.9219 4.90783 15.9198 4.91033C15.917 4.91356 15.9099 4.9218 15.9006 4.93312C15.891 4.94483 15.8789 4.95996 15.8653 4.97795C15.8515 4.99611 15.8375 5.01542 15.8235 5.03579C15.795 5.07726 15.7731 5.1136 15.7575 5.14107C15.7429 5.16672 15.734 5.18447 15.732 5.18847C15.7299 5.1926 15.7312 5.19017 15.7374 5.17693C15.7434 5.16411 15.7518 5.14564 15.764 5.11875C15.7761 5.0921 15.7905 5.05991 15.8083 5.02013C15.8261 4.98041 15.8464 4.9349 15.8701 4.88156L19.1936 6.36342ZM16.0999 7.48526L16.0929 7.47915L18.4713 4.72516L18.4784 4.73126L16.0999 7.48526ZM18.8897 6.95415C18.605 7.49146 17.792 8.8985 15.4765 12.9077L12.3254 11.0877C14.6735 7.02224 15.4307 5.71012 15.6745 5.25015L18.8897 6.95415ZM15.4757 12.909C15.6213 12.6574 15.6619 12.3539 15.587 12.0721L12.0702 13.0067C11.8976 12.3572 11.989 11.6692 12.3262 11.0864L15.4757 12.909ZM15.5855 12.0664C15.5106 11.7883 15.3266 11.5451 15.0707 11.3974L13.2514 14.5488C12.6669 14.2114 12.2456 13.6583 12.0717 13.0124L15.5855 12.0664ZM15.0673 11.3954C14.8602 11.2765 14.6587 11.2772 14.5197 11.3147C14.3811 11.352 14.2034 11.453 14.0818 11.6649L17.2379 13.4763C16.4449 14.8579 14.6327 15.3423 13.2548 14.5508L15.0673 11.3954ZM14.0843 11.6606L16.0323 8.2881L19.1833 10.1081L17.2354 13.4806L14.0843 11.6606ZM16.0334 8.28618C16.5589 7.37888 17.6316 6.92481 18.6605 7.20331L17.7098 10.7158C18.2874 10.8721 18.8894 10.6155 19.1822 10.11L16.0334 8.28618ZM18.656 7.2021C19.6767 7.47555 20.385 8.40056 20.385 9.4553H16.7461C16.7461 10.0458 17.1424 10.5638 17.7143 10.717L18.656 7.2021ZM20.385 9.4553V20.0575H16.7461V9.4553H20.385ZM20.385 20.0575C20.385 19.8501 20.3082 19.6617 20.1821 19.5174C20.0562 19.3734 19.834 19.2247 19.5264 19.2045L19.2874 22.8355C17.7558 22.7347 16.7461 21.4005 16.7461 20.0575H20.385ZM19.503 19.2031C19.288 19.1917 19.0254 19.2705 18.8259 19.4697L21.3967 22.045C20.8223 22.6184 20.0607 22.8766 19.3108 22.8369L19.503 19.2031ZM18.8247 19.4708C18.6521 19.6435 18.5561 19.88 18.5561 20.1172H22.195C22.195 20.8399 21.9113 21.5304 21.3978 22.0439L18.8247 19.4708ZM18.5561 20.1172V13.1833H22.195V20.1172H18.5561ZM18.5561 13.1833C18.5561 11.8949 19.6006 10.8504 20.889 10.8504V14.4893C21.6103 14.4893 22.195 13.9046 22.195 13.1833H18.5561ZM20.889 10.8504C22.1766 10.8504 23.2218 11.8938 23.2218 13.1833H19.5829C19.5829 13.905 20.1684 14.4893 20.889 14.4893V10.8504ZM23.2218 13.1834L23.2215 21.6934L19.5826 21.6933L19.5829 13.1832L23.2218 13.1834ZM23.2215 21.6933C23.2215 21.1874 22.813 20.7789 22.3071 20.7789V24.4178C20.8033 24.4178 19.5826 23.1972 19.5826 21.6933H23.2215ZM22.3071 20.7789C22.0703 20.7789 21.8348 20.8743 21.6625 21.0463L24.2331 23.6218C23.7193 24.1346 23.0287 24.4178 22.3071 24.4178V20.7789ZM21.6601 21.0487C21.488 21.2211 21.3926 21.4565 21.3926 21.6933H25.0315C25.0315 22.4149 24.7484 23.1056 24.2356 23.6194L21.6601 21.0487ZM21.3926 21.6933V13.1833H25.0315V21.6933H21.3926ZM21.3926 13.1833C21.3926 11.8956 22.436 10.8504 23.7255 10.8504V14.4893C24.4472 14.4893 25.0315 13.9038 25.0315 13.1833H21.3926ZM23.7255 10.8504C25.0132 10.8504 26.0584 11.8938 26.0584 13.1833H22.4195C22.4195 13.905 23.0049 14.4893 23.7255 14.4893V10.8504ZM26.0584 13.1834L26.058 20.0376L22.4192 20.0374L22.4195 13.1832L26.0584 13.1834ZM26.058 20.0375V20.1172H22.4192V20.0375H26.058ZM26.058 20.1172C26.058 19.6101 25.6486 19.2024 25.1439 19.2024V22.8413C23.6407 22.8413 22.4192 21.6216 22.4192 20.1172H26.058ZM25.1439 19.2024C24.9022 19.2024 24.6681 19.3008 24.5005 19.4677L27.0688 22.0456C26.5579 22.5546 25.8699 22.8413 25.1439 22.8413V19.2024ZM24.4993 19.4689C24.3253 19.6426 24.2295 19.88 24.2295 20.1169H27.8684C27.8684 20.8392 27.5848 21.5305 27.07 22.0444L24.4993 19.4689ZM24.2295 20.1169V13.1829H27.8684V20.1169H24.2295ZM24.2295 13.1829C24.2295 11.8952 25.2729 10.8501 26.5624 10.8501V14.4889C27.2841 14.4889 27.8684 13.9035 27.8684 13.1829H24.2295ZM26.5624 10.8501C27.85 10.8501 28.8952 11.8935 28.8952 13.1829H25.2563C25.2563 13.9046 25.8418 14.4889 26.5624 14.4889V10.8501ZM28.8952 13.1831L28.8946 18.4171L25.2557 18.4166L25.2563 13.1827L28.8952 13.1831ZM28.8946 18.4168C28.8946 17.9121 28.4869 17.5027 27.9798 17.5027V21.1416C26.4755 21.1416 25.2557 19.9201 25.2557 18.4168H28.8946ZM27.9798 17.5027C27.7411 17.5027 27.5057 17.5994 27.3346 17.7702L29.9052 20.3457C29.3933 20.8566 28.7039 21.1416 27.9798 21.1416V17.5027ZM27.3333 17.7714C27.1601 17.9446 27.065 18.1811 27.065 18.4168H30.7039C30.7039 19.1374 30.4217 19.8291 29.9064 20.3444L27.3333 17.7714ZM27.065 18.4168L27.0653 7.80804L30.7042 7.80815L30.7039 18.4169L27.065 18.4168ZM27.0653 7.80809C27.0653 5.10912 25.1029 3.21051 23.0468 3.21051V-0.428375C27.429 -0.428375 30.7042 3.43105 30.7042 7.80809H27.0653ZM21.2973 0.89123L21.2974 0.891125L24.7962 1.8908L24.7962 1.89091L21.2973 0.89123Z" fill="#4CAF4F" mask="url(#path-1-inside-1_156_116)"/>
<mask id="path-3-inside-2_156_116" fill="white">
<path d="M7.80714 27.7217L15.2574 23.2523C16.1556 22.7128 17.3114 22.942 17.8875 23.7744C18.0978 24.0775 18.2052 24.4309 18.2219 24.7906C18.4996 24.6456 18.8018 24.5669 19.1095 24.5669C19.267 24.5669 19.4252 24.5865 19.5815 24.6254C20.082 24.7504 20.5038 25.0633 20.7691 25.5056C21.0346 25.9486 21.1121 26.4678 20.987 26.9678C20.8716 27.4304 20.5903 27.8198 20.1991 28.0869C20.4727 28.2483 20.7086 28.4685 20.8764 28.7489C21.142 29.1919 21.2195 29.7108 21.0947 30.2114C20.9697 30.7113 20.6569 31.1331 20.2139 31.399L20.2113 31.4006C20.4801 31.5617 20.7119 31.7797 20.8777 32.0558C21.1436 32.4988 21.2211 33.018 21.096 33.5186C20.9707 34.0188 20.6578 34.4406 20.2155 34.7062L11.1186 40.1636C9.42081 41.1817 7.45807 41.5332 5.59277 41.1522C3.71077 40.7677 2.15213 39.6859 1.20442 38.106C-0.295371 35.6064 -0.070604 32.6532 1.78986 30.3992C1.87506 30.2963 1.95897 30.1915 2.03516 30.0828C2.11586 29.968 2.21006 29.833 2.2422 29.7867C2.43477 29.4427 5.57709 23.7812 5.57676 23.7819C5.89408 23.2093 6.48883 22.8852 7.10223 22.8855C7.38836 22.8855 7.67867 22.9559 7.94649 23.1045C8.26991 23.2851 8.54157 23.5484 8.73157 23.8657C9.12219 24.5168 9.13602 25.3315 8.76822 25.9908L7.80714 27.7217ZM7.85183 24.3935C7.75217 24.2273 7.61521 24.0949 7.44771 24.001C7.10147 23.8094 6.66552 23.9341 6.4749 24.2791C4.2264 28.3299 3.45992 29.7104 3.16413 30.2016L3.17088 30.2033C3.14613 30.2856 3.14613 30.2856 2.87543 30.6723C2.78348 30.8032 2.6835 30.9289 2.58159 31.0526C0.981798 32.9909 0.796042 35.4301 2.08424 37.578C2.88218 38.9083 4.20097 39.8204 5.79779 40.1464C7.41199 40.4746 9.11334 40.1692 10.59 39.2832L19.6877 33.8256C19.8954 33.7011 20.042 33.5034 20.1005 33.2691C20.159 33.035 20.1227 32.7916 19.9979 32.584C19.7414 32.1564 19.1842 32.0159 18.7566 32.2734L14.2686 34.9659C14.0256 35.1119 13.7099 35.0334 13.5642 34.7901C13.4183 34.547 13.497 34.2316 13.7401 34.0857L18.2284 31.3932L19.6861 30.5187C19.8938 30.394 20.0407 30.1962 20.0992 29.9625C20.1577 29.7281 20.1214 29.4844 19.9967 29.2771C19.7398 28.8492 19.1826 28.71 18.7554 28.9665L12.8094 32.5335C12.5657 32.6798 12.2509 32.6007 12.105 32.3577C11.959 32.1146 12.0381 31.7992 12.2808 31.6533L19.5784 27.2755C19.7861 27.1508 19.9327 26.9534 19.9912 26.719C20.0497 26.485 20.0134 26.2416 19.889 26.0339C19.7645 25.8266 19.5668 25.68 19.3325 25.6214C19.0968 25.5629 18.8544 25.5993 18.6474 25.7234L17.2964 26.5338C17.2961 26.5338 17.2961 26.5342 17.2958 26.5342H17.2955L11.3498 30.1011C11.1061 30.2477 10.791 30.1687 10.6454 29.9253C10.4995 29.6822 10.5785 29.3669 10.8213 29.2209L16.7673 25.6539C16.975 25.5292 17.1219 25.3315 17.1804 25.0977C17.2447 24.8412 17.1958 24.5789 17.0434 24.3589C16.7792 23.9767 16.214 23.8751 15.7854 24.1326L6.69434 29.5865C6.49534 29.7054 6.2404 29.6765 6.07354 29.5154C5.90637 29.354 5.86875 29.1004 5.98127 28.8975L7.87167 25.4916C8.06135 25.1511 8.05395 24.7306 7.85174 24.3937L7.85183 24.3935Z"/>
</mask>
<path d="M7.80714 27.7217L15.2574 23.2523C16.1556 22.7128 17.3114 22.942 17.8875 23.7744C18.0978 24.0775 18.2052 24.4309 18.2219 24.7906C18.4996 24.6456 18.8018 24.5669 19.1095 24.5669C19.267 24.5669 19.4252 24.5865 19.5815 24.6254C20.082 24.7504 20.5038 25.0633 20.7691 25.5056C21.0346 25.9486 21.1121 26.4678 20.987 26.9678C20.8716 27.4304 20.5903 27.8198 20.1991 28.0869C20.4727 28.2483 20.7086 28.4685 20.8764 28.7489C21.142 29.1919 21.2195 29.7108 21.0947 30.2114C20.9697 30.7113 20.6569 31.1331 20.2139 31.399L20.2113 31.4006C20.4801 31.5617 20.7119 31.7797 20.8777 32.0558C21.1436 32.4988 21.2211 33.018 21.096 33.5186C20.9707 34.0188 20.6578 34.4406 20.2155 34.7062L11.1186 40.1636C9.42081 41.1817 7.45807 41.5332 5.59277 41.1522C3.71077 40.7677 2.15213 39.6859 1.20442 38.106C-0.295371 35.6064 -0.070604 32.6532 1.78986 30.3992C1.87506 30.2963 1.95897 30.1915 2.03516 30.0828C2.11586 29.968 2.21006 29.833 2.2422 29.7867C2.43477 29.4427 5.57709 23.7812 5.57676 23.7819C5.89408 23.2093 6.48883 22.8852 7.10223 22.8855C7.38836 22.8855 7.67867 22.9559 7.94649 23.1045C8.26991 23.2851 8.54157 23.5484 8.73157 23.8657C9.12219 24.5168 9.13602 25.3315 8.76822 25.9908L7.80714 27.7217ZM7.85183 24.3935C7.75217 24.2273 7.61521 24.0949 7.44771 24.001C7.10147 23.8094 6.66552 23.9341 6.4749 24.2791C4.2264 28.3299 3.45992 29.7104 3.16413 30.2016L3.17088 30.2033C3.14613 30.2856 3.14613 30.2856 2.87543 30.6723C2.78348 30.8032 2.6835 30.9289 2.58159 31.0526C0.981798 32.9909 0.796042 35.4301 2.08424 37.578C2.88218 38.9083 4.20097 39.8204 5.79779 40.1464C7.41199 40.4746 9.11334 40.1692 10.59 39.2832L19.6877 33.8256C19.8954 33.7011 20.042 33.5034 20.1005 33.2691C20.159 33.035 20.1227 32.7916 19.9979 32.584C19.7414 32.1564 19.1842 32.0159 18.7566 32.2734L14.2686 34.9659C14.0256 35.1119 13.7099 35.0334 13.5642 34.7901C13.4183 34.547 13.497 34.2316 13.7401 34.0857L18.2284 31.3932L19.6861 30.5187C19.8938 30.394 20.0407 30.1962 20.0992 29.9625C20.1577 29.7281 20.1214 29.4844 19.9967 29.2771C19.7398 28.8492 19.1826 28.71 18.7554 28.9665L12.8094 32.5335C12.5657 32.6798 12.2509 32.6007 12.105 32.3577C11.959 32.1146 12.0381 31.7992 12.2808 31.6533L19.5784 27.2755C19.7861 27.1508 19.9327 26.9534 19.9912 26.719C20.0497 26.485 20.0134 26.2416 19.889 26.0339C19.7645 25.8266 19.5668 25.68 19.3325 25.6214C19.0968 25.5629 18.8544 25.5993 18.6474 25.7234L17.2964 26.5338C17.2961 26.5338 17.2961 26.5342 17.2958 26.5342H17.2955L11.3498 30.1011C11.1061 30.2477 10.791 30.1687 10.6454 29.9253C10.4995 29.6822 10.5785 29.3669 10.8213 29.2209L16.7673 25.6539C16.975 25.5292 17.1219 25.3315 17.1804 25.0977C17.2447 24.8412 17.1958 24.5789 17.0434 24.3589C16.7792 23.9767 16.214 23.8751 15.7854 24.1326L6.69434 29.5865C6.49534 29.7054 6.2404 29.6765 6.07354 29.5154C5.90637 29.354 5.86875 29.1004 5.98127 28.8975L7.87167 25.4916C8.06135 25.1511 8.05395 24.7306 7.85174 24.3937L7.85183 24.3935Z" fill="#4CAF4F"/>
<path d="M7.80714 27.7217L8.74313 29.2819L2.92008 32.7752L6.21646 26.8385L7.80714 27.7217ZM15.2574 23.2523L16.1941 24.812L16.1934 24.8125L15.2574 23.2523ZM17.8875 23.7744L16.3924 24.8113L16.3915 24.8099L17.8875 23.7744ZM18.2219 24.7906L19.0638 26.4036L16.5367 27.7227L16.4044 24.8751L18.2219 24.7906ZM19.5815 24.6254L20.021 22.8598L20.0225 22.8602L19.5815 24.6254ZM20.7691 25.5056L22.3295 24.5699L22.3296 24.5702L20.7691 25.5056ZM20.987 26.9678L19.2217 26.5274L19.222 26.5263L20.987 26.9678ZM20.1991 28.0869L19.2746 29.654L16.8082 28.1991L19.1731 26.5844L20.1991 28.0869ZM20.8764 28.7489L19.3159 29.6843L19.3153 29.6834L20.8764 28.7489ZM21.0947 30.2114L22.8602 30.6514L22.8598 30.6529L21.0947 30.2114ZM20.2139 31.399L19.2496 29.8561L19.2634 29.8475L19.2775 29.839L20.2139 31.399ZM20.2113 31.4006L19.276 32.9613L16.7262 31.4332L19.247 29.8577L20.2113 31.4006ZM20.8777 32.0558L22.4374 31.1189L22.4378 31.1196L20.8777 32.0558ZM21.096 33.5186L22.8612 33.9596L22.8609 33.9609L21.096 33.5186ZM20.2155 34.7062L21.152 36.2661L21.1515 36.2664L20.2155 34.7062ZM11.1186 40.1636L12.0546 41.7238L12.0544 41.724L11.1186 40.1636ZM5.59277 41.1522L5.22868 42.9348L5.22857 42.9348L5.59277 41.1522ZM1.20442 38.106L2.76457 37.1699L2.76468 37.1701L1.20442 38.106ZM1.78986 30.3992L0.386666 29.241L0.388567 29.2387L1.78986 30.3992ZM2.03516 30.0828L0.545421 29.0383L0.546786 29.0363L2.03516 30.0828ZM2.2422 29.7867L3.82981 30.6755L3.78684 30.7522L3.73667 30.8245L2.2422 29.7867ZM5.57676 23.7819L7.16816 24.6638L3.9494 22.9682L5.57676 23.7819ZM7.10223 22.8855V24.705H7.10125L7.10223 22.8855ZM7.94649 23.1045L8.82893 21.5133L8.83383 21.5161L7.94649 23.1045ZM8.73157 23.8657L7.17141 24.8018L7.17057 24.8004L8.73157 23.8657ZM8.76822 25.9908L7.17754 25.1076L7.17928 25.1044L8.76822 25.9908ZM7.85183 24.3935L9.41226 23.4579L10.0433 24.5104L9.30396 25.4898L7.85183 24.3935ZM7.44771 24.001L8.32869 22.409L8.33722 22.4138L7.44771 24.001ZM6.4749 24.2791L8.06739 25.1591L8.06571 25.1621L6.4749 24.2791ZM3.16413 30.2016L2.74271 31.9716L0.321692 31.3952L1.60542 29.2631L3.16413 30.2016ZM3.17088 30.2033L3.5923 28.4333L5.46883 28.8801L4.91322 30.7273L3.17088 30.2033ZM2.87543 30.6723L4.36604 31.7156L4.36407 31.7184L2.87543 30.6723ZM2.58159 31.0526L3.98617 32.2092L3.98481 32.2108L2.58159 31.0526ZM2.08424 37.578L0.523943 38.5138L0.523912 38.5138L2.08424 37.578ZM5.79779 40.1464L5.43523 41.9293L5.43385 41.929L5.79779 40.1464ZM10.59 39.2832L9.6539 37.723L9.65403 37.7229L10.59 39.2832ZM19.6877 33.8256L18.7517 32.2653L18.7527 32.2648L19.6877 33.8256ZM20.1005 33.2691L18.3352 32.8284L18.3354 32.8278L20.1005 33.2691ZM19.9979 32.584L18.4382 33.5208L18.4378 33.5201L19.9979 32.584ZM18.7566 32.2734L19.6953 33.832L19.6927 33.8336L18.7566 32.2734ZM14.2686 34.9659L13.3319 33.4061L13.3326 33.4057L14.2686 34.9659ZM13.5642 34.7901L15.124 33.8534L15.1255 33.8558L13.5642 34.7901ZM13.7401 34.0857L12.8034 32.5259L12.8041 32.5254L13.7401 34.0857ZM18.2284 31.3932L19.1644 32.9534L19.1644 32.9534L18.2284 31.3932ZM19.6861 30.5187L20.6229 32.0784L20.6221 32.0789L19.6861 30.5187ZM20.0992 29.9625L21.8645 30.4032L21.8642 30.4043L20.0992 29.9625ZM19.9967 29.2771L18.4376 30.215L18.4367 30.2135L19.9967 29.2771ZM18.7554 28.9665L19.692 30.5264L19.6913 30.5268L18.7554 28.9665ZM12.8094 32.5335L11.873 30.9735L11.8734 30.9733L12.8094 32.5335ZM12.105 32.3577L13.6648 31.421L13.6648 31.421L12.105 32.3577ZM12.2808 31.6533L11.3432 30.094L11.3449 30.093L12.2808 31.6533ZM19.5784 27.2755L20.5152 28.8353L20.5144 28.8358L19.5784 27.2755ZM19.9912 26.719L18.2259 26.2783L18.2261 26.2777L19.9912 26.719ZM19.889 26.0339L21.4491 25.0978L21.4497 25.0989L19.889 26.0339ZM19.3325 25.6214L19.7709 23.8556L19.7732 23.8562L19.3325 25.6214ZM18.6474 25.7234L17.7113 24.1632L17.712 24.1628L18.6474 25.7234ZM17.2964 26.5338L18.2325 28.094L17.8004 28.3533H17.2964V26.5338ZM17.2955 26.5342L16.3595 24.974L16.7916 24.7147H17.2955V26.5342ZM11.3498 30.1011L10.4119 28.5421L10.4138 28.5409L11.3498 30.1011ZM10.6454 29.9253L12.2052 28.9886L12.2067 28.991L10.6454 29.9253ZM10.8213 29.2209L9.88367 27.6616L9.88529 27.6607L10.8213 29.2209ZM16.7673 25.6539L17.7041 27.2137L17.7032 27.2142L16.7673 25.6539ZM17.1804 25.0977L15.4154 24.6559L15.4155 24.6554L17.1804 25.0977ZM17.0434 24.3589L15.548 25.3953L15.5468 25.3936L17.0434 24.3589ZM15.7854 24.1326L16.7226 25.6922L16.7214 25.6928L15.7854 24.1326ZM6.69434 29.5865L7.63034 31.1467L7.62783 31.1482L6.69434 29.5865ZM6.07354 29.5154L4.8099 30.8244L4.80985 30.8244L6.07354 29.5154ZM5.98127 28.8975L4.3902 28.0149L4.39044 28.0145L5.98127 28.8975ZM7.87167 25.4916L6.28083 24.6086L6.28225 24.6061L7.87167 25.4916ZM7.85174 24.3937L6.29168 25.33L5.65992 24.2773L6.3996 23.2975L7.85174 24.3937ZM6.87116 26.1615L14.3214 21.692L16.1934 24.8125L8.74313 29.2819L6.87116 26.1615ZM14.3206 21.6925C15.9942 20.6874 18.2308 21.0735 19.3836 22.7389L16.3915 24.8099C16.3893 24.8067 16.379 24.7914 16.3391 24.7835C16.2981 24.7754 16.2463 24.7807 16.1941 24.812L14.3206 21.6925ZM19.3826 22.7375C19.8079 23.3507 20.0085 24.0422 20.0394 24.7062L16.4044 24.8751C16.4018 24.8195 16.3877 24.8044 16.3924 24.8113L19.3826 22.7375ZM17.3799 23.1777C17.8986 22.907 18.4879 22.7474 19.1095 22.7474V26.3863C19.1115 26.3863 19.1096 26.386 19.1028 26.3877C19.0958 26.3895 19.0826 26.3938 19.0638 26.4036L17.3799 23.1777ZM19.1095 22.7474C19.4185 22.7474 19.7242 22.7859 20.021 22.8598L19.1419 26.3909C19.1262 26.387 19.1156 26.3863 19.1095 26.3863V22.7474ZM20.0225 22.8602C20.9919 23.1024 21.8161 23.7139 22.3295 24.5699L19.2087 26.4413C19.1982 26.4238 19.188 26.4141 19.18 26.4082C19.172 26.4022 19.1599 26.3954 19.1404 26.3906L20.0225 22.8602ZM22.3296 24.5702C22.8424 25.4256 22.9946 26.4399 22.7521 27.4093L19.222 26.5263C19.2267 26.5072 19.2265 26.4936 19.225 26.4837C19.2235 26.4737 19.2196 26.4596 19.2085 26.441L22.3296 24.5702ZM22.7524 27.4082C22.5237 28.3248 21.9661 29.0835 21.225 29.5895L19.1731 26.5844C19.1961 26.5687 19.2072 26.5554 19.2121 26.5485C19.2166 26.5422 19.2195 26.5362 19.2217 26.5274L22.7524 27.4082ZM21.1235 26.5198C21.6275 26.8171 22.096 27.2438 22.4376 27.8144L19.3153 29.6834C19.3172 29.6865 19.3177 29.6862 19.3134 29.682C19.3086 29.6774 19.2968 29.6671 19.2746 29.654L21.1235 26.5198ZM22.437 27.8135C22.9499 28.6691 23.1016 29.6825 22.8602 30.6514L19.3293 29.7714C19.3343 29.7514 19.334 29.7373 19.3325 29.7272C19.3309 29.7171 19.327 29.7029 19.3159 29.6843L22.437 27.8135ZM22.8598 30.6529C22.6174 31.6221 22.0057 32.4455 21.1503 32.959L19.2775 29.839C19.296 29.8279 19.3061 29.8173 19.3122 29.8091C19.3183 29.8009 19.3249 29.7889 19.3297 29.7699L22.8598 30.6529ZM21.1782 32.9419L21.1756 32.9435L19.247 29.8577L19.2496 29.8561L21.1782 32.9419ZM21.1466 29.84C21.6415 30.1366 22.1007 30.5583 22.4374 31.1189L19.3181 32.9928C19.3195 32.9951 19.3195 32.9942 19.3149 32.9897C19.3098 32.9847 19.2979 32.9744 19.276 32.9613L21.1466 29.84ZM22.4378 31.1196C22.9516 31.9757 23.1034 32.9902 22.8612 33.9596L19.3309 33.0776C19.3358 33.0578 19.3354 33.044 19.334 33.0342C19.3325 33.0243 19.3287 33.0104 19.3177 32.9921L22.4378 31.1196ZM22.8609 33.9609C22.6182 34.9292 22.0072 35.7527 21.152 36.2661L19.2789 33.1463C19.2969 33.1356 19.3069 33.1251 19.3131 33.1167C19.3193 33.1083 19.3262 33.0959 19.3312 33.0762L22.8609 33.9609ZM21.1515 36.2664L12.0546 41.7238L10.1826 38.6034L19.2795 33.146L21.1515 36.2664ZM12.0544 41.724C9.9837 42.9657 7.55928 43.4109 5.22868 42.9348L5.95687 39.3696C7.35687 39.6555 8.85793 39.3978 10.1829 38.6032L12.0544 41.724ZM5.22857 42.9348C2.87106 42.4532 0.866714 41.08 -0.355832 39.042L2.76468 37.1701C3.43755 38.2918 4.55048 39.0822 5.95698 39.3696L5.22857 42.9348ZM-0.35573 39.0421C-2.25367 35.879 -1.96242 32.087 0.386668 29.241L3.19306 31.5574C1.82121 33.2194 1.66293 35.3339 2.76457 37.1699L-0.35573 39.0421ZM0.388567 29.2387C0.463864 29.1478 0.511252 29.087 0.545422 29.0383L3.5249 31.1273C3.40668 31.296 3.28626 31.4448 3.19116 31.5597L0.388567 29.2387ZM0.546786 29.0363C0.625419 28.9245 0.717586 28.7924 0.747735 28.749L3.73667 30.8245C3.70252 30.8736 3.6063 31.0116 3.52354 31.1293L0.546786 29.0363ZM0.654592 28.898C0.748799 28.7297 1.57984 27.2331 2.39108 25.7719C2.79586 25.0428 3.19461 24.3245 3.49216 23.7884C3.64093 23.5204 3.7644 23.298 3.85066 23.1426C3.8938 23.0649 3.92763 23.0039 3.95068 22.9624C3.96221 22.9416 3.97105 22.9257 3.977 22.915C3.97998 22.9096 3.98226 22.9055 3.9838 22.9027C3.98456 22.9014 3.98519 22.9002 3.98564 22.8994C3.98585 22.899 3.9861 22.8986 3.98634 22.8981C3.98649 22.8979 3.98681 22.8973 3.98703 22.8969C3.98766 22.8958 6.42741 22.1735 7.20412 24.5955L3.9494 22.9682C4.72611 25.3902 7.16584 24.668 7.16642 24.6669C7.16659 24.6666 7.16685 24.6662 7.16689 24.6661C7.16695 24.666 7.16692 24.666 7.16675 24.6663C7.16645 24.6669 7.16594 24.6678 7.16519 24.6692C7.16372 24.6718 7.1615 24.6758 7.15853 24.6811C7.15261 24.6918 7.1438 24.7077 7.13228 24.7284C7.10924 24.77 7.07541 24.8309 7.03228 24.9086C6.94601 25.064 6.82253 25.2865 6.67375 25.5545C6.37619 26.0906 5.97739 26.809 5.57256 27.5382C4.76458 28.9935 3.92818 30.4998 3.82981 30.6755L0.654592 28.898ZM3.98536 22.8999C4.63673 21.7246 5.85583 21.0654 7.10321 21.0661L7.10125 24.705C7.11422 24.705 7.12544 24.7019 7.13615 24.6957C7.14942 24.6881 7.16164 24.6756 7.16816 24.6638L3.98536 22.8999ZM7.10223 21.0661C7.68834 21.0661 8.28353 21.2108 8.82893 21.5133L7.06405 24.6956C7.06786 24.6977 7.07396 24.7003 7.0816 24.7023C7.08898 24.7042 7.096 24.705 7.10223 24.705V21.0661ZM8.83383 21.5161C9.43421 21.8515 9.93853 22.3398 10.2926 22.9311L7.17057 24.8004C7.14461 24.7571 7.10561 24.7188 7.05914 24.6928L8.83383 21.5161ZM10.2917 22.9297C11.0155 24.1359 11.0442 25.6456 10.3572 26.8772L7.17928 25.1044C7.22788 25.0173 7.22889 24.8976 7.17141 24.8018L10.2917 22.9297ZM10.3589 26.874L9.39783 28.6049L6.21646 26.8385L7.17754 25.1076L10.3589 26.874ZM6.2914 25.3292C6.35534 25.4358 6.45005 25.5276 6.5582 25.5882L8.33722 22.4138C8.78037 22.6622 9.149 23.0188 9.41226 23.4579L6.2914 25.3292ZM6.56675 25.5929C7.09483 25.8852 7.76889 25.6993 8.06739 25.1591L4.88241 23.3991C5.56215 22.169 7.1081 21.7336 8.32867 22.4091L6.56675 25.5929ZM8.06571 25.1621C5.83236 29.1856 5.04047 30.6126 4.72284 31.1402L1.60542 29.2631C1.87938 28.8081 2.62045 27.4742 4.88409 23.3961L8.06571 25.1621ZM3.58555 28.4317L3.5923 28.4333L2.74946 31.9732L2.74271 31.9716L3.58555 28.4317ZM4.91322 30.7273C4.91064 30.7359 4.87731 30.8535 4.81912 30.9864C4.76051 31.1203 4.69755 31.2256 4.65489 31.2933C4.58758 31.4002 4.48379 31.5474 4.36604 31.7156L1.38482 29.629C1.41884 29.5804 1.44779 29.5391 1.47301 29.5029C1.49828 29.4667 1.51857 29.4376 1.53525 29.4134C1.55209 29.389 1.56332 29.3726 1.57086 29.3613C1.57866 29.3497 1.5793 29.3485 1.57588 29.3539C1.57015 29.363 1.52874 29.4287 1.48556 29.5273C1.47507 29.5513 1.46564 29.5745 1.45721 29.5967C1.44887 29.6186 1.44226 29.6375 1.43734 29.6521C1.43259 29.6663 1.42931 29.6768 1.42808 29.6808C1.42714 29.6838 1.42658 29.6857 1.42854 29.6792L4.91322 30.7273ZM4.36407 31.7184C4.23273 31.9053 4.09878 32.0724 3.98617 32.2092L1.17701 29.8961C1.26823 29.7853 1.33424 29.701 1.3868 29.6262L4.36407 31.7184ZM3.98481 32.2108C2.87332 33.5575 2.7545 35.1581 3.64456 36.6421L0.523912 38.5138C-1.16241 35.7021 -0.909723 32.4244 1.17836 29.8945L3.98481 32.2108ZM3.64453 36.6421C4.16541 37.5105 5.0362 38.1339 6.16173 38.3637L5.43385 41.929C3.36574 41.5068 1.59895 40.3061 0.523943 38.5138L3.64453 36.6421ZM6.16036 38.3634C7.30845 38.5969 8.5487 38.3862 9.6539 37.723L11.5261 40.8433C9.67798 41.9522 7.51552 42.3523 5.43523 41.9293L6.16036 38.3634ZM9.65403 37.7229L18.7517 32.2653L20.6237 35.3858L11.526 40.8434L9.65403 37.7229ZM18.7527 32.2648C18.5465 32.3882 18.3939 32.5932 18.3352 32.8284L21.8657 33.7098C21.69 34.4137 21.2442 35.014 20.6227 35.3864L18.7527 32.2648ZM18.3354 32.8278C18.2764 33.0635 18.315 33.3157 18.4382 33.5208L21.5577 31.6471C21.9303 32.2675 22.0416 33.0065 21.8656 33.7103L18.3354 32.8278ZM18.4378 33.5201C18.696 33.9505 19.2564 34.0963 19.6953 33.832L17.818 30.7148C19.112 29.9354 20.7867 30.3623 21.5581 31.6479L18.4378 33.5201ZM19.6927 33.8336L15.2046 36.5261L13.3326 33.4057L17.8206 30.7132L19.6927 33.8336ZM15.2053 36.5257C14.103 37.1877 12.667 36.834 12.003 35.7243L15.1255 33.8558C14.7527 33.2328 13.9481 33.0361 13.3319 33.4061L15.2053 36.5257ZM12.0044 35.7268C11.341 34.622 11.6991 33.189 12.8034 32.5259L14.6768 35.6455C15.295 35.2742 15.4955 34.472 15.124 33.8534L12.0044 35.7268ZM12.8041 32.5254L17.2925 29.8329L19.1644 32.9534L14.6761 35.6459L12.8041 32.5254ZM17.2924 29.8329L18.7501 28.9585L20.6221 32.0789L19.1644 32.9534L17.2924 29.8329ZM18.7493 28.959C18.5467 29.0807 18.3936 29.2834 18.3342 29.5207L21.8642 30.4043C21.6878 31.109 21.2409 31.7073 20.6229 32.0784L18.7493 28.959ZM18.3339 29.5218C18.2755 29.7559 18.3132 30.0082 18.4376 30.215L21.5557 28.3392C21.9296 28.9607 22.0399 29.7004 21.8645 30.4032L18.3339 29.5218ZM18.4367 30.2135C18.6964 30.6462 19.2566 30.7878 19.692 30.5264L17.8188 27.4067C19.1086 26.6322 20.7831 27.0522 21.5566 28.3406L18.4367 30.2135ZM19.6913 30.5268L13.7453 34.0937L11.8734 30.9733L17.8194 27.4063L19.6913 30.5268ZM13.7458 34.0935C12.6394 34.7576 11.2076 34.3975 10.5452 33.2943L13.6648 31.421C13.2942 30.8039 12.492 30.602 11.873 30.9735L13.7458 34.0935ZM10.5452 33.2943C9.88092 32.1882 10.2417 30.7564 11.3432 30.094L13.2184 33.2125C13.8345 32.842 14.0371 32.041 13.6648 31.421L10.5452 33.2943ZM11.3449 30.093L18.6424 25.7153L20.5144 28.8358L13.2168 33.2135L11.3449 30.093ZM18.6416 25.7158C18.4381 25.838 18.285 26.0418 18.2259 26.2783L21.7565 27.1597C21.5804 27.8649 21.1341 28.4636 20.5152 28.8353L18.6416 25.7158ZM18.2261 26.2777C18.1672 26.5134 18.2058 26.7648 18.3282 26.969L21.4497 25.0989C21.8209 25.7184 21.9322 26.4566 21.7563 27.1603L18.2261 26.2777ZM18.3288 26.97C18.4522 27.1758 18.6568 27.3281 18.8918 27.3867L19.7732 23.8562C20.4769 24.0319 21.0768 24.4774 21.4491 25.0978L18.3288 26.97ZM18.894 27.3873C19.1246 27.4445 19.3762 27.4077 19.5828 27.2839L17.712 24.1628C18.3325 23.7908 19.069 23.6814 19.7709 23.8556L18.894 27.3873ZM19.5834 27.2836L18.2325 28.094L16.3604 24.9737L17.7113 24.1632L19.5834 27.2836ZM17.2964 28.3533C17.3725 28.3533 17.4526 28.3485 17.5358 28.3375C17.6192 28.3264 17.7032 28.3094 17.7869 28.2859C17.8707 28.2625 17.9507 28.2336 18.0265 28.2003C18.1023 28.1672 18.1708 28.131 18.2323 28.0941C18.2936 28.0573 18.3465 28.0207 18.391 27.9871C18.4353 27.9537 18.4719 27.923 18.4999 27.8983C18.5277 27.8738 18.5494 27.8531 18.5624 27.8405C18.5691 27.8341 18.5744 27.8288 18.5776 27.8256C18.5805 27.8227 18.583 27.8202 18.5826 27.8206C18.5826 27.8206 18.5826 27.8206 18.5826 27.8206C18.5826 27.8206 18.5826 27.8207 18.5825 27.8207C18.5825 27.8207 18.5824 27.8208 18.5823 27.8209C18.5821 27.8211 18.5818 27.8214 18.5814 27.8219C18.5806 27.8227 18.5792 27.824 18.5776 27.8256C18.5743 27.8288 18.569 27.8341 18.5623 27.8406C18.5493 27.8532 18.5276 27.8739 18.4998 27.8984C18.4717 27.9232 18.4352 27.9539 18.3909 27.9873C18.3463 28.0209 18.2934 28.0575 18.2321 28.0943C18.1706 28.1312 18.1019 28.1674 18.0262 28.2006C17.9503 28.2339 17.8703 28.2627 17.7865 28.2862C17.7027 28.3097 17.6187 28.3267 17.5353 28.3378C17.452 28.3488 17.3719 28.3536 17.2958 28.3536V24.7147C17.2198 24.7147 17.1397 24.7195 17.0564 24.7305C16.973 24.7416 16.889 24.7587 16.8053 24.7821C16.7215 24.8056 16.6416 24.8344 16.5657 24.8677C16.49 24.9009 16.4214 24.9371 16.3599 24.974C16.2987 25.0107 16.2457 25.0474 16.2012 25.0809C16.1569 25.1143 16.1204 25.145 16.0923 25.1698C16.0646 25.1942 16.0429 25.2149 16.0298 25.2275C16.0232 25.234 16.0179 25.2392 16.0146 25.2424C16.0117 25.2453 16.0092 25.2479 16.0096 25.2474C16.0096 25.2474 16.0096 25.2474 16.0096 25.2474C16.0097 25.2474 16.0097 25.2474 16.0097 25.2473C16.0098 25.2473 16.0098 25.2472 16.0099 25.2471C16.0101 25.2469 16.0105 25.2466 16.0109 25.2462C16.0117 25.2454 16.013 25.244 16.0147 25.2424C16.0179 25.2392 16.0232 25.2339 16.0299 25.2275C16.043 25.2148 16.0647 25.1941 16.0924 25.1696C16.1205 25.1449 16.1571 25.1141 16.2014 25.0807C16.246 25.0472 16.2989 25.0105 16.3602 24.9737C16.4217 24.9368 16.4903 24.9006 16.566 24.8674C16.6419 24.8342 16.7219 24.8053 16.8057 24.7818C16.8895 24.7584 16.9735 24.7413 17.057 24.7302C17.1402 24.7192 17.2204 24.7144 17.2964 24.7144V28.3533ZM17.2958 28.3536H17.2955V24.7147H17.2958V28.3536ZM18.2315 28.0944L12.2858 31.6614L10.4138 28.5409L16.3595 24.974L18.2315 28.0944ZM12.2877 31.6602C11.1814 32.3258 9.74652 31.9664 9.08416 30.8596L12.2067 28.991C11.8356 28.3709 11.0309 28.1697 10.4119 28.5421L12.2877 31.6602ZM9.08561 30.862C8.42137 29.7559 8.78211 28.324 9.88367 27.6616L11.7589 30.7802C12.375 30.4097 12.5776 29.6086 12.2052 28.9886L9.08561 30.862ZM9.88529 27.6607L15.8313 24.0937L17.7032 27.2142L11.7572 30.7811L9.88529 27.6607ZM15.8305 24.0942C15.6278 24.2159 15.4748 24.4187 15.4154 24.6559L18.9454 25.5396C18.769 26.2443 18.3221 26.8425 17.7041 27.2137L15.8305 24.0942ZM15.4155 24.6554C15.3502 24.9161 15.4067 25.1914 15.548 25.3953L18.5389 23.3226C18.9849 23.9663 19.1392 24.7663 18.9452 25.5401L15.4155 24.6554ZM15.5468 25.3936C15.7232 25.6487 15.966 25.7628 16.154 25.7966C16.3423 25.8305 16.5438 25.7996 16.7226 25.6922L14.8483 22.5731C15.9995 21.8813 17.666 22.06 18.54 23.3243L15.5468 25.3936ZM16.7214 25.6928L7.63034 31.1467L5.75835 28.0262L14.8494 22.5724L16.7214 25.6928ZM7.62783 31.1482C6.7256 31.6875 5.56985 31.558 4.8099 30.8244L7.33718 28.2064C6.91095 27.7949 6.26507 27.7234 5.76086 28.0247L7.62783 31.1482ZM4.80985 30.8244C4.04924 30.0901 3.8786 28.9373 4.3902 28.0149L7.57233 29.78C7.85889 29.2634 7.76349 28.6179 7.33723 28.2064L4.80985 30.8244ZM4.39044 28.0145L6.28084 24.6086L9.4625 26.3746L7.5721 29.7805L4.39044 28.0145ZM6.28225 24.6061C6.15249 24.839 6.16157 25.1131 6.29168 25.33L9.41179 23.4574C9.94633 24.3481 9.97021 25.4633 9.46108 26.3771L6.28225 24.6061ZM6.3996 23.2975L6.3997 23.2973L9.30396 25.4898L9.30387 25.4899L6.3996 23.2975Z" fill="#4CAF4F" mask="url(#path-3-inside-2_156_116)"/>
<path d="M30.8084 34.1858L30.8087 34.186L30.8084 34.1858Z" fill="#4CAF4F" stroke="#4CAF4F" stroke-width="1.81944"/>
</svg>
