<svg width="58" height="46" viewBox="0 0 58 46" fill="none" xmlns="http://www.w3.org/2000/svg">
<path d="M3.76497 13.1821V13.8644H4.44727H53.5723H54.2546V13.1821V10.1118C54.2546 8.5737 53.6435 7.09858 52.5559 6.01096C51.4683 4.92335 49.9932 4.31234 48.4551 4.31234H9.56445C8.02634 4.31234 6.55122 4.92335 5.4636 6.01096C4.37599 7.09858 3.76497 8.5737 3.76497 10.1118V13.1821ZM54.2546 17.2759V16.5936H53.5723H4.44727H3.76497V17.2759V36.7212C3.76497 38.2593 4.37599 39.7344 5.4636 40.822C6.55122 41.9097 8.02634 42.5207 9.56445 42.5207H48.4551C49.9932 42.5207 51.4683 41.9097 52.5559 40.822C53.6435 39.7344 54.2546 38.2593 54.2546 36.7212V17.2759ZM1.03581 10.1118C1.03581 7.84988 1.93436 5.68058 3.53379 4.08115C5.13322 2.48172 7.30252 1.58317 9.56445 1.58317H48.4551C50.717 1.58317 52.8863 2.48172 54.4857 4.08115C56.0852 5.68058 56.9837 7.84988 56.9837 10.1118V36.7212C56.9837 38.9831 56.0852 41.1524 54.4857 42.7519C52.8863 44.3513 50.717 45.2498 48.4551 45.2498H9.56445C7.30252 45.2498 5.13322 44.3513 3.53379 42.7519C1.93436 41.1524 1.03581 38.9831 1.03581 36.7212V10.1118ZM39.2441 30.2394H45.3848C45.7467 30.2394 46.0938 30.3832 46.3497 30.6391C46.6056 30.895 46.7493 31.2421 46.7493 31.604C46.7493 31.9659 46.6056 32.313 46.3497 32.5689C46.0938 32.8248 45.7467 32.9686 45.3848 32.9686H39.2441C38.8822 32.9686 38.5351 32.8248 38.2792 32.5689C38.0233 32.313 37.8796 31.9659 37.8796 31.604C37.8796 31.2421 38.0233 30.895 38.2792 30.6391C38.5351 30.3832 38.8822 30.2394 39.2441 30.2394Z" fill="#4CAF4F" stroke="#4CAF4F" stroke-width="1.36458"/>
</svg>
