<svg width="47" height="53" viewBox="0 0 47 53" fill="none" xmlns="http://www.w3.org/2000/svg">
<path d="M45.1159 50.979V45.5207C45.1159 42.6254 43.9657 39.8487 41.9185 37.8014C39.8712 35.7542 37.0945 34.604 34.1992 34.604H31.4701C30.7462 34.604 30.0521 34.3165 29.5402 33.8046C29.0284 33.2928 28.7409 32.5987 28.7409 31.8748V18.229C28.7409 16.7814 28.1658 15.393 27.1422 14.3694C26.1185 13.3457 24.7302 12.7707 23.2826 12.7707C21.8349 12.7707 20.4466 13.3457 19.4229 14.3694C18.3993 15.393 17.8242 16.7814 17.8242 18.229V42.7915L11.2742 34.0582C10.7658 33.3803 10.1065 32.83 9.34859 32.4511C8.59067 32.0721 7.75493 31.8748 6.90755 31.8748H5.72309C3.36236 31.8748 1.44922 33.788 1.44922 36.1487C1.44922 36.9238 1.65936 37.6852 2.05782 38.3484L9.63672 50.979M23.2826 4.58317V1.854V4.58317ZM39.6576 20.9582H42.3867H39.6576ZM4.17839 20.9582H6.90755H4.17839ZM10.5728 8.24844L8.6433 6.31892L10.5728 8.24844ZM35.9923 8.24844L37.9218 6.31892L35.9923 8.24844Z" fill="#4CAF4F"/>
<path d="M45.1159 50.979V45.5207C45.1159 42.6254 43.9657 39.8487 41.9185 37.8014C39.8712 35.7542 37.0945 34.604 34.1992 34.604H31.4701C30.7462 34.604 30.0521 34.3165 29.5402 33.8046C29.0284 33.2928 28.7409 32.5987 28.7409 31.8748V18.229C28.7409 16.7814 28.1658 15.393 27.1422 14.3694C26.1185 13.3457 24.7302 12.7707 23.2826 12.7707V12.7707C21.8349 12.7707 20.4466 13.3457 19.4229 14.3694C18.3993 15.393 17.8242 16.7814 17.8242 18.229V42.7915L11.2742 34.0582C10.7658 33.3803 10.1065 32.83 9.34859 32.4511C8.59067 32.0721 7.75493 31.8748 6.90755 31.8748H5.72309C3.36236 31.8748 1.44922 33.788 1.44922 36.1487C1.44922 36.9238 1.65936 37.6852 2.05782 38.3484L9.63672 50.979M23.2826 4.58317V1.854M39.6576 20.9582H42.3867M4.17839 20.9582H6.90755M10.5728 8.24844L8.6433 6.31892M35.9923 8.24844L37.9218 6.31892" stroke="#4CAF4F" stroke-width="2.72917" stroke-linecap="round" stroke-linejoin="round"/>
</svg>
